{"title":"Tech N9ne Strictly Strange 2009 DVDRip-XviD-EzPimpinYa","uid":5604899,"size":738774528,"categoryP":"video","categoryS":"movies","magnet":"?xt=urn:btih:1281e51871e2a90a56e33c2392f2d23976c7f491&amp;dn=Tech+N9ne+Strictly+Strange+2009+DVDRip-XviD-EzPimpinYa&amp;tr=udp%3A%2F%2Ftracker.openbittorrent.com%3A80&amp;tr=udp%3A%2F%2Fopen.demonii.com%3A1337&amp;tr=udp%3A%2F%2Ftracker.coppersurfer.tk%3A6969&amp;tr=udp%3A%2F%2Fexodus.desync.com%3A6969","seeders":0,"leechers":1,"uploader":"EzPimpinYa","files":1,"time":1275535245,"description":"Another tech n9ne video brought to you by EzPimpinYa\n\n\nGeneral \nComplete name : C:Documents and SettingsAMDJrDesktopTech.N9ne.K.O.D.Tour.Live.In.Kansas.City.2010.DVDrip-TAINT.avi \nFormat : AVI \nFormat/Info : Audio Video Interleave \nFile size : 885 MiB \nDuration : 1h 28mn \nOverall bit rate : 1 398 Kbps \nMovie name : KOD_TOUR.Title2.DVDRip \nWriting application : Lavf52.33.0 \nOriginal source form/Name : KOD_TOUR \n\nVideo \nID : 0 \nFormat : AVC \nFormat/Info : Advanced Video Codec \nFormat profile : &lt;a class=&quot;__cf_email__&quot; href=&quot;/cdn-cgi/l/email-protection&quot; data-cfemail=&quot;77351604121b1e1912373b465944&quot;&gt;[email&amp;#160;protected]&lt;/a&gt;&lt;script cf-hash='f9e31' type=&quot;text/javascript&quot;&gt;\n/* &lt;![CDATA[ */!function(){try{var t=&quot;currentScript&quot;in document?document.currentScript:function(){for(var t=document.getElementsByTagName(&quot;script&quot;),e=t.length;e--;)if(t[e].getAttribute(&quot;cf-hash&quot;))return t[e]}();if(t&amp;&amp;t.previousSibling){var e,r,n,i,c=t.previousSibling,a=c.getAttribute(&quot;data-cfemail&quot;);if(a){for(e=&quot;&quot;,r=parseInt(a.substr(0,2),16),n=2;a.length-n;n+=2)i=parseInt(a.substr(n,2),16)^r,e+=String.fromCharCode(i);e=document.createTextNode(e),c.parentNode.replaceChild(e,c)}}}catch(u){}}();/* ]]&gt; */&lt;/script&gt; \nFormat settings, CABAC : No \nFormat settings, ReFrames : 1 frame \nCodec ID : H264 \nDuration : 1h 28mn \nBit rate : 1 195 Kbps \nNominal bit rate : 1 012 Kbps \nWidth : 704 pixels \nHeight : 400 pixels \nDisplay aspect ratio : 16:9 \nFrame rate : 23.976 fps \nResolution : 8 bits \nColorimetry : 4:2:0 \nScan type : Progressive \nBits/(Pixel*Frame) : 0.177 \nStream size : 756 MiB (85%) \nWriting library : x264 core 67 \nEncoding settings : cabac=0 / ref=1 / deblock=0:0:0 / analyse=0x1:0 / me=dia / subme=8 / psy_rd=1.0:0.0 / mixed_ref=0 / me_range=4 / chroma_me=1 / trellis=0 / 8x8dct=0 / cqm=0 / deadzone=21,11 / chroma_qp_offset=-2 / threads=8 / nr=0 / decimate=1 / mbaff=0 / bframes=0 / keyint=250 / keyint_min=25 / scenecut=0 / rc=abr / bitrate=1012 / ratetol=8.1 / qcomp=0.50 / qpmin=10 / qpmax=31 / qpstep=3 / ip_ratio=1.25 / aq=1:1.00:10.00 \n\nAudio \nID : 1 \nFormat : AC-3 \nFormat/Info : Audio Coding 3 \nFormat_Settings_ModeExtension : CM (complete main) \nCodec ID : 2000 \nDuration : 1h 28mn \nBit rate mode : Constant \nBit rate : 192 Kbps \nChannel(s) : 2 channels \nChannel positions : Front: L R \nSampling rate : 48.0 KHz \nStream size : 122 MiB (14%) \nAlignment : Aligned on interleaves \nInterleave, duration : 32 ms (0.77 video frame) \nInterleave, preload duration : 32 ms \n","torrent":{"xt":"urn:btih:1281e51871e2a90a56e33c2392f2d23976c7f491","amp;dn":"Tech+N9ne+Strictly+Strange+2009+DVDRip-XviD-EzPimpinYa","amp;tr":["udp%3A%2F%2Ftracker.openbittorrent.com%3A80","udp%3A%2F%2Fopen.demonii.com%3A1337","udp%3A%2F%2Ftracker.coppersurfer.tk%3A6969","udp%3A%2F%2Fexodus.desync.com%3A6969"],"infoHash":"1281e51871e2a90a56e33c2392f2d23976c7f491","infoHashBuffer":{"type":"Buffer","data":[18,129,229,24,113,226,169,10,86,227,60,35,146,242,210,57,118,199,244,145]},"announce":[],"urlList":[]}}